<svg width="52" height="16" viewBox="0 0 52 16" fill="none" xmlns="http://www.w3.org/2000/svg">
<path d="M10.0425 8.16953C10.0425 10.9472 8.22251 12.8263 5.8175 12.8263C4.745 12.8263 3.8675 12.4831 3.25 11.8459V15.5223H0V3.75787H3.25V4.47681C3.8675 3.85591 4.745 3.49644 5.8175 3.49644C8.22251 3.4801 10.0425 5.37548 10.0425 8.16953ZM6.79251 8.16953C6.79251 7.05844 6.09376 6.20879 5.02125 6.20879C4.03 6.20879 3.23375 7.0421 3.23375 8.16953C3.23375 9.26427 4.03 10.0976 5.02125 10.0976C6.11001 10.0976 6.79251 9.26427 6.79251 8.16953Z" fill="black"/>
<path d="M20.3287 12.565H17.0787V11.6827C16.3962 12.418 15.5025 12.8265 14.4462 12.8265C12.4637 12.8265 11.1475 11.4539 11.1475 9.21544V3.75806H14.4137V8.51284C14.4137 9.34615 14.9012 9.90169 15.6487 9.90169C16.51 9.90169 17.095 9.24811 17.095 8.02265V3.75806H20.345V12.565H20.3287Z" fill="black"/>
<path d="M31.135 7.09116V12.5485H27.8688V7.79376C27.8688 6.96045 27.3813 6.4049 26.6338 6.4049C25.7725 6.4049 25.1875 7.04214 25.1875 8.28394V12.5649H21.9375V3.75791H25.1875V4.64024C25.87 3.90497 26.7638 3.49648 27.82 3.49648C29.8188 3.48014 31.135 4.869 31.135 7.09116Z" fill="black"/>
<path d="M41.6651 9.24807C41.3076 11.4212 39.3738 12.8264 37.0988 12.8264C34.4501 12.8264 32.2401 10.9474 32.2401 8.16967C32.2401 5.37562 34.4501 3.49658 37.0988 3.49658C39.3576 3.49658 41.2426 4.8691 41.6488 7.02591L38.6588 7.6468C38.4638 6.71546 37.8626 6.25795 37.0988 6.25795C36.0588 6.25795 35.3601 7.1076 35.3601 8.16967C35.3601 9.23173 36.0588 10.065 37.0988 10.065C37.8626 10.065 38.4638 9.5912 38.6913 8.67619L41.6651 9.24807Z" fill="black"/>
<path d="M52 7.09132V12.5487H48.7337V7.79392C48.7337 6.96061 48.2462 6.40507 47.4987 6.40507C46.6375 6.40507 46.0525 7.04231 46.0525 8.2841V12.565H42.8025V0H46.0525V4.64041C46.735 3.90513 47.6287 3.49664 48.685 3.49664C50.6837 3.4803 52 4.86916 52 7.09132Z" fill="black"/>
</svg>
