<svg width="52" height="17" viewBox="0 0 52 17" fill="none" xmlns="http://www.w3.org/2000/svg">
<path d="M10.0425 8.81241C10.0425 11.6102 8.22251 13.5028 5.81751 13.5028C4.74501 13.5028 3.8675 13.1572 3.25 12.5153V16.2183H0V4.36889H3.25V5.09302C3.8675 4.46764 4.74501 4.10557 5.81751 4.10557C8.22251 4.08912 10.0425 5.99818 10.0425 8.81241ZM6.79251 8.81241C6.79251 7.6933 6.09376 6.83751 5.02126 6.83751C4.03 6.83751 3.23375 7.67684 3.23375 8.81241C3.23375 9.91506 4.03 10.7544 5.02126 10.7544C6.11001 10.7544 6.79251 9.91506 6.79251 8.81241Z" fill="black"/>
<path d="M20.3287 13.2392H17.0787V12.3506C16.3962 13.0911 15.5025 13.5024 14.4462 13.5024C12.4637 13.5024 11.1475 12.1202 11.1475 9.86577V4.36963H14.4137V9.15818C14.4137 9.99742 14.9012 10.5569 15.6487 10.5569C16.51 10.5569 17.095 9.89868 17.095 8.66452V4.36963H20.345V13.2392H20.3287Z" fill="black"/>
<path d="M31.135 7.72616V13.2228H27.8688V8.43381C27.8688 7.5945 27.3813 7.03496 26.6338 7.03496C25.7725 7.03496 25.1875 7.67679 25.1875 8.92752V13.2393H21.9375V4.36892H25.1875V5.2576C25.87 4.51704 26.7638 4.10561 27.82 4.10561C29.8188 4.08916 31.135 5.488 31.135 7.72616Z" fill="black"/>
<path d="M41.665 9.89854C41.3075 12.0872 39.3738 13.5024 37.0988 13.5024C34.45 13.5024 32.24 11.61 32.24 8.81243C32.24 5.99842 34.45 4.10596 37.0988 4.10596C39.3575 4.10596 41.2425 5.48828 41.6488 7.66049L38.6588 8.28583C38.4638 7.34783 37.8625 6.88705 37.0988 6.88705C36.0587 6.88705 35.36 7.74277 35.36 8.81243C35.36 9.88208 36.0587 10.7213 37.0988 10.7213C37.8625 10.7213 38.4638 10.2441 38.6913 9.32257L41.665 9.89854Z" fill="black"/>
<path d="M52 7.72623V13.2228H48.7337V8.43387C48.7337 7.59458 48.2462 7.03505 47.4987 7.03505C46.6375 7.03505 46.0525 7.67686 46.0525 8.92758V13.2393H42.8025V0.583984H46.0525V5.25771C46.735 4.51716 47.6287 4.10574 48.685 4.10574C50.6837 4.08928 52 5.48811 52 7.72623Z" fill="black"/>
</svg>
