<svg width="53" height="21" viewBox="0 0 53 21" fill="none" xmlns="http://www.w3.org/2000/svg">
<path d="M48.1898 3.99824C45.5844 2.77997 43.0008 3.06792 40.8114 5.02823C39.8042 5.92532 38.8518 6.91101 37.9103 7.88563C36.2792 6.2022 34.659 4.5077 32.9841 2.87964C28.9664 -0.985597 22.4966 -0.952371 18.5118 2.93502C16.8478 4.56307 15.2276 6.2465 13.5965 7.91885C12.7645 7.05499 11.9325 6.2022 11.0677 5.39371C9.02054 3.49985 6.59025 3.13437 4.09427 4.23082C1.45598 5.39371 0.109473 7.57552 0 10.7652C0.164209 13.2903 1.32462 15.4168 3.80964 16.635C6.3713 17.8976 8.83443 17.5543 10.9582 15.6826C11.8778 14.8741 12.7317 13.9881 13.5746 13.102C15.151 14.719 16.7165 16.3581 18.3257 17.953C20.3947 20.0019 22.9017 21.0429 25.8027 20.9986C28.6161 21.0208 31.0683 20.0462 33.0717 18.0748C34.7137 16.4689 36.3011 14.8076 37.8994 13.1574C38.7752 14.0767 39.651 14.9959 40.5924 15.8376C42.8147 17.809 45.3545 18.2963 48.1022 17.0448C50.85 15.8044 52.0542 13.5007 52.3279 10.6544C52.1418 7.56445 50.8609 5.24973 48.1898 3.99824ZM10.9254 10.8759C10.1481 11.6401 9.43653 12.4818 8.60454 13.2017C7.49887 14.1763 6.21804 14.3425 4.88248 13.7001C3.5907 13.0688 2.9886 11.9502 2.90102 10.6433C2.95576 8.97099 3.66733 7.83025 5.03574 7.23219C6.33846 6.66736 7.60834 6.85563 8.67022 7.84133C9.44748 8.55014 10.17 9.35863 10.9144 10.1007C11.199 10.3665 11.2428 10.5769 10.9254 10.8759ZM35.2392 10.8759C33.6956 12.4265 32.2068 14.0324 30.6523 15.5607C29.3058 16.8787 27.6637 17.5321 25.7917 17.51C23.8541 17.5432 22.1791 16.8454 20.7998 15.4832C19.2891 13.977 17.8331 12.4265 16.3333 10.9202C16.0158 10.6101 16.0268 10.4218 16.3224 10.1228C17.8659 8.58336 19.3657 6.97746 20.9312 5.46016C23.5913 2.85749 27.9046 2.83534 30.5866 5.42694C32.174 6.95531 33.6738 8.58336 35.2283 10.156C35.5019 10.4329 35.5348 10.588 35.2392 10.8759ZM46.6572 13.7001C45.3107 14.3425 44.0299 14.1763 42.9351 13.2017C42.1031 12.4818 41.3916 11.6401 40.6034 10.8759C40.2968 10.5769 40.3406 10.3665 40.6253 10.1007C41.3697 9.35863 42.0922 8.55014 42.8694 7.84133C43.9313 6.85563 45.2012 6.66736 46.5039 7.23219C47.8723 7.83025 48.5839 8.97099 48.6386 10.6433C48.5511 11.9502 47.949 13.0688 46.6572 13.7001Z" fill="black"/>
</svg>
